<svg width="24" height="22" viewBox="0 0 24 22" fill="none" xmlns="http://www.w3.org/2000/svg">
<path d="M0.257841 9.96627L7.78482 2.43929C8.11208 2.11203 8.68727 2.11203 9.02444 2.43929C9.19303 2.60788 9.28228 2.82605 9.28228 3.05414C9.28228 3.29215 9.19303 3.51033 9.02444 3.669L2.98501 9.70843H20.2405C20.7265 9.70843 21.1132 10.1051 21.1132 10.5811C21.1132 10.8191 21.024 11.0373 20.8554 11.196C20.6868 11.3646 20.4686 11.4538 20.2405 11.4538H2.98501L9.02444 17.4933C9.19303 17.6618 9.28228 17.88 9.28228 18.1081C9.28228 18.3362 9.19303 18.5643 9.02444 18.723C8.85585 18.8915 8.63768 18.9808 8.40959 18.9808C8.1815 18.9808 7.95341 18.8915 7.79474 18.723L0.257841 11.2059C0.0892527 11.0472 0 10.8291 0 10.591C0 10.353 0.0892527 10.1349 0.257841 9.97619V9.96627Z" fill="white"/>
<path d="M23.1372 0C23.6132 0 24 0.396679 24 0.88261V20.3C24 20.786 23.6132 21.1826 23.1372 21.1826C22.6612 21.1826 22.2744 20.786 22.2744 20.3V0.88261C22.2744 0.396679 22.6612 0 23.1372 0Z" fill="white"/>
</svg>
