<svg width="20" height="20" viewBox="0 0 20 20" fill="none" xmlns="http://www.w3.org/2000/svg">
<path d="M6.59507 18C6.75554 18 6.90263 17.9398 7.0163 17.8262L14.4246 10.4179C14.6586 10.1839 14.6586 9.80944 14.4246 9.57543L7.0163 2.17384C6.90263 2.06018 6.75554 2 6.59507 2C6.4346 2 6.28751 2.06018 6.17384 2.17384C6.06018 2.28751 6 2.4346 6 2.59507C6 2.75554 6.06018 2.90263 6.17384 3.0163L13.1609 10.0033L13.1475 10.0167L6.17384 16.9837C6.06018 17.0974 6 17.2445 6 17.4049C6 17.5654 6.06018 17.7125 6.17384 17.8262C6.28751 17.9398 6.4346 18 6.59507 18Z" fill="white"/>
</svg>
