<svg width="28" height="28" viewBox="0 0 28 28" fill="none" xmlns="http://www.w3.org/2000/svg">
<path d="M18.1694 2.75H22.6894C23.7015 2.75 24.3064 2.98702 24.6615 3.32756C25.0105 3.66222 25.2494 4.22336 25.2494 5.17V12.77C25.2494 13.7166 25.0105 14.2778 24.6615 14.6124C24.3064 14.953 23.7015 15.19 22.6894 15.19H18.1694C17.1572 15.19 16.5523 14.953 16.1972 14.6124C15.8483 14.2778 15.6094 13.7166 15.6094 12.77V5.17C15.6094 4.22336 15.8483 3.66222 16.1972 3.32756C16.5523 2.98702 17.1572 2.75 18.1694 2.75Z" stroke="white" stroke-width="1.5"/>
<path d="M18.1694 18.3999H22.6894C23.7015 18.3999 24.3064 18.6369 24.6615 18.9775C25.0105 19.3121 25.2494 19.8733 25.2494 20.8199V22.8299C25.2494 23.7765 25.0105 24.3377 24.6615 24.6723C24.3064 25.0129 23.7015 25.2499 22.6894 25.2499H18.1694C17.1572 25.2499 16.5523 25.0129 16.1972 24.6723C15.8483 24.3377 15.6094 23.7765 15.6094 22.8299V20.8199C15.6094 19.8733 15.8483 19.3121 16.1972 18.9775C16.5523 18.6369 17.1572 18.3999 18.1694 18.3999Z" stroke="white" stroke-width="1.5"/>
<path d="M5.32 12.8101H9.83H9.84C10.858 12.8101 11.4654 13.0475 11.8215 13.3882C12.1711 13.7227 12.41 14.2834 12.41 15.2301V22.8301C12.41 23.7749 12.1696 24.336 11.8184 24.6713C11.4604 25.013 10.8521 25.2501 9.84 25.2501H5.32C4.30203 25.2501 3.69462 25.0127 3.3385 24.6719C2.98888 24.3374 2.75 23.7767 2.75 22.8301V15.2301C2.75 14.2852 2.99044 13.7241 3.34164 13.3888C3.69959 13.0471 4.30788 12.8101 5.32 12.8101Z" stroke="white" stroke-width="1.5"/>
<path d="M5.32 2.75H9.83H9.84C10.858 2.75 11.4654 2.98741 11.8215 3.32815C12.1711 3.66268 12.41 4.22337 12.41 5.17V7.18C12.41 8.12483 12.1696 8.68599 11.8184 9.02126C11.4604 9.36298 10.8521 9.6 9.84 9.6H5.32C4.30203 9.6 3.69462 9.36259 3.3385 9.02185C2.98888 8.68732 2.75 8.12663 2.75 7.18V5.17C2.75 4.22337 2.98888 3.66268 3.3385 3.32815C3.69462 2.98741 4.30203 2.75 5.32 2.75Z" stroke="white" stroke-width="1.5"/>
</svg>
