<svg width="28" height="28" viewBox="0 0 28 28" fill="none" xmlns="http://www.w3.org/2000/svg">
<path d="M22.6894 2H18.1694C15.9394 2 14.8594 3.04 14.8594 5.17V12.77C14.8594 14.9 15.9394 15.94 18.1694 15.94H22.6894C24.9194 15.94 25.9994 14.9 25.9994 12.77V5.17C25.9994 3.04 24.9194 2 22.6894 2Z" fill="#FEFEFE"/>
<path d="M22.6894 17.6499H18.1694C15.9394 17.6499 14.8594 18.6899 14.8594 20.8199V22.8299C14.8594 24.9599 15.9394 25.9999 18.1694 25.9999H22.6894C24.9194 25.9999 25.9994 24.9599 25.9994 22.8299V20.8199C25.9994 18.6899 24.9194 17.6499 22.6894 17.6499Z" fill="#FEFEFE"/>
<path d="M9.83 12.0601H5.32C3.09 12.0601 2 13.1001 2 15.2301V22.8301C2 24.9601 3.08 26.0001 5.32 26.0001H9.84C12.07 26.0001 13.16 24.9601 13.16 22.8301V15.2301C13.16 13.1001 12.08 12.0601 9.84 12.0601H9.83Z" fill="#FEFEFE"/>
<path d="M9.83 2H5.32C3.08 2 2 3.04 2 5.17V7.18C2 9.31 3.08 10.35 5.32 10.35H9.84C12.07 10.35 13.16 9.31 13.16 7.18V5.17C13.16 3.04 12.08 2 9.84 2H9.83Z" fill="#FEFEFE"/>
</svg>
