<svg width="13" height="16" viewBox="0 0 13 16" fill="none" xmlns="http://www.w3.org/2000/svg">
<path fill-rule="evenodd" clip-rule="evenodd" d="M10.6332 2.34H9.81982L9.52648 1.46667C9.23315 0.593333 8.41315 0 7.49315 0H5.05982C4.13315 0 3.31315 0.593333 3.02648 1.46667L2.73315 2.34H1.91982C0.339816 2.34 -0.560184 4.14667 0.386483 5.41333C0.793149 5.95333 1.01315 6.61333 1.01315 7.28667V12.2933C1.01315 14.34 2.67315 16 4.71982 16H7.83982C9.88648 16 11.5465 14.34 11.5465 12.2933V7.28667C11.5465 6.61333 11.7665 5.95333 12.1732 5.41333C13.1198 4.14667 12.2198 2.34 10.6398 2.34H10.6332ZM4.13315 1.83333C4.26648 1.43333 4.63982 1.16667 5.05982 1.16667H7.49315C7.91315 1.16667 8.28648 1.43333 8.41982 1.83333L8.58648 2.34H3.96648L4.13315 1.83333ZM11.2332 4.70667C10.6732 5.44667 10.3732 6.35333 10.3732 7.28V12.2867C10.3732 13.6867 9.23982 14.82 7.83982 14.82H4.71982C3.31982 14.82 2.18648 13.6867 2.18648 12.2867V7.28C2.18648 6.35333 1.88648 5.44667 1.32648 4.70667C0.953149 4.21333 1.30648 3.50667 1.92648 3.50667H3.14648H9.41315H10.6332C11.2531 3.50667 11.5998 4.21333 11.2332 4.70667Z" fill="#E00000"/>
<path fill-rule="evenodd" clip-rule="evenodd" d="M7.83917 6.24658C7.51917 6.24658 7.2525 6.50658 7.2525 6.83325V11.5132C7.2525 11.8332 7.5125 12.0999 7.83917 12.0999C8.16584 12.0999 8.42584 11.8399 8.42584 11.5132V6.83325C8.42584 6.51325 8.16584 6.24658 7.83917 6.24658Z" fill="#E00000"/>
<path fill-rule="evenodd" clip-rule="evenodd" d="M4.72104 6.24658C4.40104 6.24658 4.13437 6.50658 4.13437 6.83325V11.5132C4.13437 11.8332 4.39437 12.0999 4.72104 12.0999C5.0477 12.0999 5.3077 11.8399 5.3077 11.5132V6.83325C5.3077 6.51325 5.0477 6.24658 4.72104 6.24658Z" fill="#E00000"/>
</svg>
