<svg width="28" height="28" viewBox="0 0 28 28" fill="none" xmlns="http://www.w3.org/2000/svg">
<path d="M12.9937 11.0863C12.7937 11.2863 12.6737 11.6363 12.7237 11.8663C12.7737 12.0963 12.9637 12.4163 13.1137 12.5063L13.2337 12.5863V11.7463C13.2337 11.2863 13.2337 10.9062 13.2037 10.9062C13.1737 10.9062 13.0837 10.9863 12.9937 11.0863Z" fill="white"/>
<path d="M15.156 15.1944C15.0057 15.0944 14.8655 15.0244 14.8555 15.0244C14.8355 15.0244 14.8154 15.5044 14.8154 16.0844C14.8154 16.6644 14.8154 17.1444 14.8455 17.1444C14.8455 17.1444 14.9657 17.0944 15.0758 17.0444C15.8571 16.6444 15.8971 15.6744 15.156 15.1944Z" fill="white"/>
<path d="M20.9521 8.27746H22.534C23.9356 8.27746 24.1359 8.27746 24.3061 8.36742C25.0569 8.75726 24.8267 9.88679 23.9757 9.98675C23.8155 10.0067 22.544 10.0167 21.1424 10.0067C18.3391 9.98675 18.4092 9.99674 18.1389 9.6269L18.0087 9.44697V6.60815C18.0087 3.8293 18.0087 3.76932 18.1288 3.61939C18.5093 3.1096 19.1701 3.0896 19.5405 3.5794L19.7007 3.77932L19.7207 5.37866V6.98799L21.8031 4.92884C19.7107 3.13958 16.9675 2.04004 13.994 2.04004C7.37628 2.04004 2 7.40782 2 14.0151C2 20.6223 7.37628 26.0001 13.994 26.0001C20.6117 26.0001 25.998 20.6323 25.998 14.0151C25.998 11.0263 24.8968 8.27746 23.0646 6.17832L20.9622 8.27746H20.9521ZM15.1554 18.6232L14.815 18.6831V19.3529C14.815 20.1026 14.7449 20.3025 14.4345 20.5024C14.0941 20.7423 13.5935 20.6223 13.3633 20.2725C13.2832 20.1525 13.2632 19.9826 13.2431 19.3729L13.2231 18.6232L12.9428 18.5632C12.0718 18.3633 11.0506 17.6236 10.7102 16.9539C10.52 16.574 10.6501 16.1042 11.0205 15.9443C11.401 15.7544 11.7113 15.8443 12.0417 16.2442C12.272 16.514 13.0129 17.0438 13.163 17.0438C13.2231 17.0438 13.2331 16.8039 13.2331 15.6844V14.325L12.9228 14.185C12.1619 13.8451 11.5111 13.2854 11.2508 12.7256C10.6201 11.4062 11.451 9.73685 12.9228 9.35701L13.2031 9.28704L13.2331 8.58733C13.2632 7.78766 13.3433 7.57775 13.6736 7.40782C13.9039 7.28787 14.2743 7.30786 14.4846 7.46779C14.7449 7.66771 14.815 7.87762 14.815 8.59732V9.25705L15.2555 9.39699C15.4958 9.47696 15.8262 9.6269 15.9964 9.73685C16.3668 9.97675 16.8473 10.4566 16.9575 10.7064C17.1877 11.1863 16.9274 11.736 16.4469 11.776C16.0865 11.806 16.0064 11.776 15.6359 11.4262C15.4357 11.2362 15.1654 11.0263 15.0352 10.9663L14.815 10.8464V13.2854L15.2355 13.4553C16.1165 13.8152 16.8774 14.4249 17.1477 14.9947C17.8485 16.4841 16.8373 18.3333 15.1554 18.6332V18.6232Z" fill="white"/>
<path d="M23.0249 6.1982L23.4154 5.80836C25.6079 3.61927 25.9083 3.2994 25.9683 3.08949C26.1586 2.36979 25.4678 1.78003 24.7669 2.07991C24.6468 2.12989 23.6656 3.0695 22.1439 4.57887L21.7734 4.94872C22.224 5.33856 22.6445 5.74839 23.0249 6.1982Z" fill="white"/>
</svg>
