<svg width="28" height="28" viewBox="0 0 28 28" fill="none" xmlns="http://www.w3.org/2000/svg">
<path d="M24.7779 2.07997C24.6578 2.12999 23.6775 3.0703 22.157 4.59081L19.7262 7.02163L19.7062 5.41109L19.6862 3.81055L19.5261 3.61048C19.156 3.12032 18.4958 3.14032 18.1056 3.6505C17.9956 3.80055 17.9956 3.86057 17.9956 6.63149V9.47245L18.1156 9.65251C18.3857 10.0226 18.3157 10.0126 21.1167 10.0326C22.5071 10.0426 23.7775 10.0326 23.9376 10.0126C24.7879 9.91259 25.018 8.78222 24.2677 8.40209C24.1077 8.31206 23.8976 8.30205 22.5071 8.30205H20.9266L23.4174 5.81122C25.6082 3.62048 25.9083 3.30038 25.9683 3.09031C26.1583 2.37007 25.4681 1.77987 24.7679 2.07997H24.7779Z" fill="white"/>
<path d="M13.0437 2.07981C12.9537 2.08982 12.6536 2.12983 12.3735 2.15984C10.4628 2.37992 8.32212 3.27021 6.63155 4.56065C4.58086 6.12117 3.01034 8.51197 2.36012 11.0528C2.09003 12.1232 2 12.9034 2 14.0338C2 15.9845 2.36012 17.575 3.21041 19.3056C3.85062 20.616 4.56086 21.5964 5.61121 22.6267C7.41181 24.3673 9.53252 25.4476 12.1134 25.8978C12.8836 26.0378 15.0944 26.0378 15.8746 25.8978C18.8657 25.3676 21.3565 23.9571 23.2371 21.6964C24.9277 19.6757 25.948 16.9848 25.988 14.3839C25.998 13.8037 25.988 13.7237 25.888 13.5837C25.5979 13.1935 25.1177 13.0735 24.7276 13.2936C24.4075 13.4636 24.3175 13.6937 24.2775 14.454C24.0474 18.9555 21.0864 22.6867 16.7549 23.9271C15.1844 24.3773 13.2138 24.4173 11.6332 24.0272C8.63222 23.2869 6.11138 21.2762 4.78093 18.5453C3.15039 15.2242 3.41047 11.4129 5.48117 8.3119C7.26176 5.64101 10.2027 3.97045 13.4738 3.78038C14.3341 3.73037 14.5142 3.68035 14.7243 3.38025C14.8943 3.14017 14.9043 2.65001 14.7443 2.42993C14.5042 2.09982 14.3841 2.0498 13.7839 2.0498C13.4838 2.0498 13.1537 2.0498 13.0637 2.05981L13.0437 2.07981Z" fill="white"/>
<path d="M13.6738 7.41196C13.3437 7.58202 13.2737 7.79209 13.2437 8.59235L13.2137 9.29259L12.9336 9.36261C11.4531 9.74274 10.6328 11.4033 11.263 12.7337C11.5231 13.2939 12.1733 13.8641 12.9336 14.1942L13.2437 14.3343V15.6947C13.2437 16.8151 13.2337 17.0552 13.1637 17.0552C13.0136 17.0552 12.2734 16.525 12.0433 16.2549C11.7132 15.8648 11.4031 15.7748 11.0229 15.9548C10.6628 16.1249 10.5228 16.585 10.7128 16.9652C11.063 17.6354 12.0833 18.3756 12.9436 18.5757L13.2237 18.6457L13.2437 19.396C13.2637 19.9962 13.2837 20.1762 13.3537 20.2963C13.5838 20.6464 14.084 20.7664 14.4341 20.5264C14.7442 20.3163 14.8142 20.1162 14.8142 19.366V18.7057L15.1543 18.6457C16.8349 18.3556 17.8452 16.505 17.145 15.0145C16.8749 14.4443 16.1146 13.8241 15.2344 13.474L14.8142 13.3039V10.8631L15.0343 10.9732C15.1543 11.0332 15.4244 11.2432 15.6345 11.4333C16.0046 11.7834 16.0846 11.8134 16.4448 11.7834C16.9149 11.7434 17.175 11.1932 16.9549 10.7131C16.8349 10.453 16.3547 9.98282 15.9946 9.74274C15.8245 9.6327 15.4844 9.48265 15.2444 9.40263L14.8142 9.26258V8.60236C14.8142 7.88212 14.7442 7.66204 14.4841 7.46198C14.274 7.31193 13.9039 7.29192 13.6738 7.41196ZM13.2437 11.7534V12.5937L13.1236 12.5137C12.9836 12.4236 12.7935 12.1035 12.7335 11.8735C12.6835 11.6434 12.8035 11.2933 13.0036 11.0932C13.1036 10.9932 13.2037 10.9131 13.2137 10.9131C13.2337 10.9131 13.2437 11.2933 13.2437 11.7534ZM15.1643 15.2146C15.9046 15.6947 15.8646 16.6651 15.0843 17.0652C14.9743 17.1152 14.8642 17.1652 14.8542 17.1652C14.8342 17.1652 14.8242 16.6851 14.8242 16.1049C14.8242 15.5247 14.8442 15.0445 14.8642 15.0445C14.8842 15.0445 15.0143 15.1245 15.1643 15.2146Z" fill="white"/>
</svg>
