<svg width="16" height="16" viewBox="0 0 16 16" fill="none" xmlns="http://www.w3.org/2000/svg">
<path d="M11.98 0.0293862C11.88 0.0493845 11.68 0.122712 11.5334 0.189373C11.28 0.302696 11.1801 0.396022 9.60019 1.95589C7.22039 4.29569 5.0939 6.44217 4.96725 6.62883C4.58728 7.19544 4.53395 7.44209 4.46729 8.9153C4.4073 10.2085 4.42063 10.3618 4.58061 10.6951C4.7006 10.9418 4.97392 11.2418 5.20056 11.3618C5.58053 11.5684 5.66719 11.5751 7.09374 11.5617C8.34696 11.5484 8.41362 11.5417 8.6536 11.4618C8.98691 11.3484 9.26688 11.2084 9.49353 11.0351C9.78017 10.8018 15.553 4.88231 15.693 4.66899C15.9663 4.25569 16.073 3.63575 15.953 3.16912C15.8263 2.66916 15.7463 2.56917 14.6531 1.46926C14.0665 0.875981 13.5465 0.389356 13.4199 0.302696C13.2999 0.222703 13.0999 0.122712 12.9666 0.0893811C12.6933 0.00272179 12.2266 -0.0239426 11.98 0.0227201V0.0293862ZM12.6999 1.14263C12.7933 1.18929 13.2066 1.56259 13.7865 2.13587C14.8331 3.16245 14.9131 3.26911 14.9131 3.63575C14.9131 3.7824 14.8864 3.88239 14.8331 3.98905C14.7864 4.06904 14.4864 4.40901 14.1531 4.74899L13.5599 5.36893L12.1 3.90906L10.6401 2.44918L11.2334 1.84923C11.8933 1.18929 12.0533 1.07596 12.3733 1.07596C12.4733 1.07596 12.6199 1.10929 12.6999 1.14263ZM11.34 4.67566C12.14 5.45559 12.7866 6.10887 12.7866 6.1222C12.7866 6.14887 9.71351 9.3286 9.12023 9.90855C8.53361 10.4885 8.3203 10.5418 6.80709 10.5218C5.74718 10.5085 5.69385 10.4952 5.55387 10.2285C5.4872 10.0952 5.4872 10.0619 5.5272 9.03529C5.57386 7.95538 5.60719 7.6954 5.74718 7.41543C5.80051 7.30877 6.48712 6.5955 7.82701 5.24894C8.93358 4.14237 9.84684 3.24245 9.86017 3.24911C9.8735 3.25578 10.5334 3.89573 11.3267 4.67566H11.34Z" fill="url(#paint0_linear_347_505)"/>
<path d="M3.77968 1.00265C3.43304 1.05598 3.02641 1.1693 2.67977 1.32262C1.31322 1.90924 0.333305 3.1358 0.0599949 4.60235C-0.0199983 5.05564 -0.0199983 11.8684 0.0599949 12.3484C0.213315 13.2216 0.639946 14.0349 1.26656 14.6682C1.88651 15.2948 2.57978 15.6814 3.50637 15.9081C3.80634 15.9814 3.90634 15.9814 7.25939 15.9947C9.4592 16.008 10.8324 15.9947 11.0524 15.9747C11.7923 15.8947 12.5256 15.6281 13.1322 15.2081C13.8855 14.6948 14.5121 13.8616 14.8054 12.9883C15.0121 12.3817 15.0187 12.215 15.0187 10.1552C15.0187 8.3087 15.0187 8.28203 14.9454 8.15538C14.7321 7.81541 14.1721 7.80874 13.9588 8.14205L13.8722 8.2687L13.8588 10.1285C13.8455 11.9817 13.8455 11.9884 13.7522 12.335C13.4255 13.5416 12.5456 14.4148 11.3524 14.7215L11.0324 14.8015H3.99966L3.67969 14.7215C2.93308 14.5282 2.29981 14.1149 1.84651 13.5149C1.5732 13.155 1.39988 12.795 1.27989 12.3417L1.1799 11.9884L1.16657 8.82865C1.15324 5.38895 1.16657 4.95565 1.32655 4.46236C1.6132 3.53577 2.29314 2.7825 3.17973 2.4092C3.53526 2.2581 4.41074 2.17589 5.80617 2.16255C7.67935 2.14255 7.72601 2.14255 7.826 2.06256C8.00599 1.92924 8.09265 1.76925 8.09265 1.54927C8.09265 1.30263 7.99266 1.13597 7.79934 1.03598C7.66602 0.969321 7.58602 0.962655 5.82617 0.969321C4.81959 0.969321 3.893 0.989319 3.77301 1.00265H3.77968Z" fill="url(#paint1_linear_347_505)"/>
<defs>
<linearGradient id="paint0_linear_347_505" x1="12.7829" y1="0.50119" x2="4.40356" y2="4.67404" gradientUnits="userSpaceOnUse">
<stop stop-color="#FF2957"/>
<stop offset="1" stop-color="#FF7357"/>
</linearGradient>
<linearGradient id="paint1_linear_347_505" x1="10.8394" y1="1.61871" x2="-0.0446123" y2="7.03312" gradientUnits="userSpaceOnUse">
<stop stop-color="#FF2957"/>
<stop offset="1" stop-color="#FF7357"/>
</linearGradient>
</defs>
</svg>
