<svg width="20" height="20" viewBox="0 0 20 20" fill="none" xmlns="http://www.w3.org/2000/svg">
<path d="M3.72787 12.1596L2.02822 17.2319C1.96156 17.4452 2.01489 17.6718 2.16819 17.8251C2.2815 17.9385 2.42814 17.9984 2.58144 17.9984C2.64143 17.9984 2.70141 17.9851 2.76807 17.9651L7.85371 16.2721L3.72787 12.1596ZM17.3251 3.8413L16.152 2.67486C15.2522 1.77505 13.7858 1.77505 12.886 2.67486L12.5328 3.03479L16.9652 7.46723L17.3251 7.1073C18.225 6.20749 18.225 4.74111 17.3251 3.8413ZM4.39441 11.1665L8.83351 15.6123L16.1454 8.28707L11.7129 3.85463L4.39441 11.1665Z" fill="#031100"/>
</svg>
