<svg width="15" height="16" viewBox="0 0 15 16" fill="none" xmlns="http://www.w3.org/2000/svg">
<path d="M13.48 1.04C12.8133 0.373333 11.92 0 10.9733 0H10.1467C8.80667 0 7.5 0.26 6.26667 0.773333C5.02667 1.28667 3.92 2.02667 2.97333 2.97333C2.02667 3.92 1.28667 5.02667 0.773333 6.26667C0.26 7.50667 0 8.81333 0 10.1467V12.4533C0 13.4 0.366667 14.2933 1.04 14.96C1.70667 15.6267 2.6 16 3.54667 16H10.9733C11.92 16 12.8133 15.6333 13.48 14.96C14.1467 14.2933 14.52 13.4 14.52 12.4533V3.54667C14.52 2.6 14.1533 1.70667 13.48 1.04ZM1.15333 10.2733C1.15333 9.59333 1.29333 9.17333 1.58 8.98C1.82 8.81333 2.21333 8.74667 2.92667 8.74C3.06 8.74 3.2 8.74 3.34667 8.74H3.36667C3.50667 8.74 3.66 8.74 3.81333 8.74C4.96 8.74 6.38 8.62667 7.47333 7.52667C8.08667 6.91333 8.45333 6.14 8.6 5.16667C8.69333 4.56 8.68667 3.93333 8.68 3.38V3.36667C8.68 3.22 8.68 3.08 8.68 2.94667C8.68 2.22 8.76 1.82667 8.92667 1.57333C9.03333 1.41333 9.25333 1.20667 9.9 1.15333C9.92667 1.15333 9.94667 1.15333 9.97333 1.15333C10.0533 1.15333 10.1333 1.14667 10.22 1.14667H10.98C11.62 1.14667 12.22 1.39333 12.6733 1.84667C13.1267 2.3 13.3733 2.9 13.3733 3.54V12.4533C13.3733 13.0933 13.1267 13.6933 12.6733 14.1467C12.22 14.6 11.62 14.8467 10.98 14.8467H3.55333C2.91333 14.8467 2.31333 14.6 1.86 14.1467C1.40667 13.6933 1.16 13.0933 1.16 12.4533V10.2667L1.15333 10.2733ZM7.53333 2.94C7.53333 3.12 7.53333 3.29333 7.53333 3.44667C7.53333 3.98 7.53333 4.48667 7.46 4.99333C7.34667 5.72667 7.09333 6.27333 6.65333 6.71333C5.84667 7.52 4.81333 7.58667 3.70667 7.58667C3.6 7.58667 3.5 7.58667 3.39333 7.58667C3.24 7.58667 3.08 7.58667 2.92 7.58667C2.45333 7.58667 1.94667 7.61333 1.48 7.76667C1.88667 6.27333 2.66667 4.9 3.79333 3.78C4.9 2.67333 6.25333 1.89333 7.72 1.48C7.56667 1.95333 7.54 2.46667 7.53333 2.93333V2.94Z" fill="url(#paint0_linear_347_497)"/>
<path d="M3.5546 11.5471H10.9813C11.2946 11.5471 11.5546 11.2871 11.5546 10.9737C11.5546 10.6604 11.2946 10.4004 10.9813 10.4004H3.5546C3.24126 10.4004 2.98126 10.6604 2.98126 10.9737C2.98126 11.2871 3.24126 11.5471 3.5546 11.5471Z" fill="url(#paint1_linear_347_497)"/>
<path d="M9.49271 8.57342H10.9794C11.2927 8.57342 11.5527 8.31342 11.5527 8.00009C11.5527 7.68676 11.2927 7.42676 10.9794 7.42676H9.49271C9.17937 7.42676 8.91937 7.68676 8.91937 8.00009C8.91937 8.31342 9.17937 8.57342 9.49271 8.57342Z" fill="url(#paint2_linear_347_497)"/>
<path d="M10.2333 5.59979H10.9733C11.2867 5.59979 11.5467 5.33979 11.5467 5.02646C11.5467 4.71313 11.2867 4.45312 10.9733 4.45312H10.2333C9.92 4.45312 9.66 4.71313 9.66 5.02646C9.66 5.33979 9.92 5.59979 10.2333 5.59979Z" fill="url(#paint3_linear_347_497)"/>
<defs>
<linearGradient id="paint0_linear_347_497" x1="10.4794" y1="0.693332" x2="-0.42135" y2="5.6191" gradientUnits="userSpaceOnUse">
<stop stop-color="#FF2957"/>
<stop offset="1" stop-color="#FF7357"/>
</linearGradient>
<linearGradient id="paint1_linear_347_497" x1="9.16884" y1="10.4501" x2="8.64727" y2="12.3918" gradientUnits="userSpaceOnUse">
<stop stop-color="#FF2957"/>
<stop offset="1" stop-color="#FF7357"/>
</linearGradient>
<linearGradient id="paint2_linear_347_497" x1="10.8199" y1="7.47645" x2="9.78827" y2="8.65614" gradientUnits="userSpaceOnUse">
<stop stop-color="#FF2957"/>
<stop offset="1" stop-color="#FF7357"/>
</linearGradient>
<linearGradient id="paint3_linear_347_497" x1="11.0217" y1="4.50281" x2="10.0011" y2="5.33895" gradientUnits="userSpaceOnUse">
<stop stop-color="#FF2957"/>
<stop offset="1" stop-color="#FF7357"/>
</linearGradient>
</defs>
</svg>
