<svg width="23" height="24" viewBox="0 0 23 24" fill="none" xmlns="http://www.w3.org/2000/svg">
<path d="M22.54 10.0099C22.35 10.2399 22.07 10.3799 21.77 10.3799H14.65C13.75 10.3799 13.01 9.63986 13.01 8.73986V1.60986C13.01 1.30986 13.14 1.02986 13.37 0.839863C13.55 0.689863 13.77 0.609863 14 0.609863C14.07 0.609863 14.13 0.609863 14.19 0.629863C18.51 1.49986 21.87 4.85986 22.74 9.17986C22.8 9.46986 22.72 9.76986 22.53 9.99986L22.54 10.0099Z" fill="white"/>
<path d="M22.77 11.7101V12.0001C22.77 18.2901 17.67 23.3901 11.39 23.3901C5.11 23.3901 0 18.2901 0 12.0001C0 5.71012 5.1 0.620117 11.39 0.620117H11.59C11.28 1.07012 11.11 1.60012 11.11 2.16012V8.84012C11.11 10.7001 12.63 12.2201 14.5 12.2201H21.17C21.75 12.2201 22.31 12.0401 22.77 11.7101Z" fill="white"/>
</svg>
