<svg width="24" height="24" viewBox="0 0 24 24" fill="none" xmlns="http://www.w3.org/2000/svg">
<path d="M23.9441 9.51295C22.9804 4.7315 19.2685 1.01827 14.4846 0.0545974C13.6686 -0.109092 12.8256 0.0989535 12.1794 0.629405C11.5333 1.15986 11.1616 1.94137 11.1616 2.77704V9.4527C11.1616 11.3185 12.6791 12.8373 14.5462 12.8373H21.2217C22.0574 12.8373 22.8389 12.4656 23.3694 11.8182C23.8998 11.1708 24.109 10.3313 23.9441 9.51295ZM21.9405 10.6501C21.762 10.8679 21.5011 10.9924 21.2217 10.9924H14.5462C13.6982 10.9924 13.0077 10.3019 13.0077 9.4539V2.77825C13.0077 2.49887 13.1333 2.23798 13.3486 2.05952C13.5185 1.92167 13.7265 1.84783 13.9382 1.84783C13.9997 1.84783 14.0612 1.854 14.1203 1.8663C18.1719 2.68352 21.3177 5.82808 22.1337 9.87843C22.1891 10.1504 22.1189 10.4323 21.9405 10.6501ZM22.2617 15.962C20.7971 20.7705 16.4255 24 11.3844 24C5.10636 24 0 18.8936 0 12.6156C0 7.57451 3.23072 3.20287 8.03801 1.73951C8.52908 1.58936 9.04108 1.8663 9.19123 2.35368C9.33892 2.84105 9.06444 3.35679 8.57706 3.50571C4.5513 4.73276 1.84612 8.39293 1.84612 12.6168C1.84612 17.8758 6.12542 22.1551 11.3844 22.1551C15.6071 22.1551 19.2685 19.4499 20.4943 15.4242C20.6433 14.9368 21.1553 14.6611 21.6476 14.81C22.1349 14.9577 22.4094 15.4734 22.2617 15.962Z" fill="white"/>
</svg>
