<svg width="28" height="28" viewBox="0 0 28 28" fill="none" xmlns="http://www.w3.org/2000/svg">
<path d="M24.169 18.4969L22.8084 16.2259C22.3182 15.4156 22.0681 14.4852 22.0681 13.5348V10.3035C22.0681 5.72155 18.3466 2 13.7646 2C9.18274 2 5.46119 5.72155 5.46119 10.2935V13.5248C5.46119 14.4752 5.20108 15.4056 4.72088 16.2159L3.36031 18.4869C2.89012 19.2772 2.88011 20.2276 3.3303 21.0279C3.78049 21.8283 4.61083 22.3085 5.53122 22.3085H10.4333C10.4333 22.4085 10.3932 22.5085 10.3932 22.6186C10.3932 24.4894 11.9139 26 13.7747 26C15.6354 26 17.1561 24.4794 17.1561 22.6186C17.1561 22.5186 17.126 22.4185 17.116 22.3085H22.0181C22.9385 22.3085 23.7588 21.8283 24.219 21.0279C24.6692 20.2276 24.6592 19.2772 24.189 18.4869L24.169 18.4969ZM15.2953 22.6286C15.2953 23.479 14.605 24.1692 13.7546 24.1692C12.9043 24.1692 12.214 23.479 12.214 22.6286C12.214 22.5286 12.234 22.4185 12.254 22.3185H15.2553C15.2753 22.4185 15.2953 22.5186 15.2953 22.6286ZM22.5883 20.1276C22.5283 20.2276 22.3582 20.4677 21.9981 20.4677H5.52121C5.16106 20.4677 4.99099 20.2276 4.93097 20.1276C4.87094 20.0275 4.7609 19.7474 4.93097 19.4473L6.29153 17.1763C6.95181 16.0759 7.30196 14.8153 7.30196 13.5348V10.3035C7.30196 6.74198 10.2032 3.85077 13.7646 3.85077C17.3261 3.85077 20.2273 6.74198 20.2273 10.3035V13.5348C20.2273 14.8153 20.5775 16.0759 21.2378 17.1763L22.5983 19.4473C22.7784 19.7574 22.6684 20.0275 22.6083 20.1276H22.5883Z" fill="#616161"/>
</svg>
