<svg width="28" height="28" viewBox="0 0 28 28" fill="none" xmlns="http://www.w3.org/2000/svg">
<path d="M25.6453 24.3498C23.8353 22.5398 22.0253 20.7298 20.2153 18.9198C20.1353 18.8398 20.0653 18.7598 19.9953 18.6798C23.8153 14.0098 22.6853 7.5998 18.6353 4.3098C14.5453 0.9898 8.66531 1.2798 4.96531 4.9798C1.27531 8.6798 0.99531 14.5398 4.31531 18.6198C7.60531 22.6598 14.0153 23.7998 18.7353 19.9398C18.8153 20.0398 18.8753 20.1398 18.9553 20.2198C20.7353 22.0098 22.5253 23.7898 24.3053 25.5698C24.3853 25.6398 24.4553 25.7198 24.5353 25.7898C24.8353 26.0298 25.1753 26.0498 25.5153 25.8998C25.8453 25.7398 26.0053 25.4598 26.0053 25.0798C26.0053 24.7798 25.8553 24.5498 25.6553 24.3498H25.6453ZM12.1853 20.5098C7.54531 20.5098 3.84531 16.7698 3.84531 12.1198C3.84531 7.5598 7.59531 3.8498 12.1753 3.8498C16.7853 3.8498 20.5153 7.5698 20.5053 12.1798C20.5053 16.7898 16.7753 20.5198 12.1753 20.5098H12.1853Z" fill="#616161"/>
</svg>
