<svg width="24" height="24" viewBox="0 0 24 24" fill="none" xmlns="http://www.w3.org/2000/svg">
<path d="M8 12.11C6.86 12.11 5.93 13.04 5.93 14.18C5.93 15.32 6.86 16.24 8 16.24C9.14 16.24 10.06 15.32 10.06 14.18C10.06 13.04 9.15 12.11 8 12.11ZM8 12.11C6.86 12.11 5.93 13.04 5.93 14.18C5.93 15.32 6.86 16.24 8 16.24C9.14 16.24 10.06 15.32 10.06 14.18C10.06 13.04 9.15 12.11 8 12.11ZM8 12.11C6.86 12.11 5.93 13.04 5.93 14.18C5.93 15.32 6.86 16.24 8 16.24C9.14 16.24 10.06 15.32 10.06 14.18C10.06 13.04 9.15 12.11 8 12.11ZM15.99 7.76C14.85 7.76 13.93 8.69 13.93 9.82C13.93 10.95 14.85 11.89 15.99 11.89C17.13 11.89 18.06 10.96 18.06 9.82C18.06 8.68 17.12 7.76 15.99 7.76ZM15.99 7.76C14.85 7.76 13.93 8.69 13.93 9.82C13.93 10.95 14.85 11.89 15.99 11.89C17.13 11.89 18.06 10.96 18.06 9.82C18.06 8.68 17.12 7.76 15.99 7.76ZM8 12.11C6.86 12.11 5.93 13.04 5.93 14.18C5.93 15.32 6.86 16.24 8 16.24C9.14 16.24 10.06 15.32 10.06 14.18C10.06 13.04 9.15 12.11 8 12.11ZM15.34 0H8.65C2.59 0 0 2.59 0 8.65V15.35C0 21.41 2.59 24 8.65 24H15.34C21.41 24 24 21.41 24 15.35V8.65C24 2.59 21.41 0 15.34 0ZM7.16 4.75C7.16 4.29 7.54 3.91 8 3.91C8.46 3.91 8.84 4.29 8.84 4.75V9.1C8.84 9.56 8.47 9.94 8 9.94C7.53 9.94 7.16 9.56 7.16 9.1V4.75ZM8.84 17.82V19.26C8.84 19.71 8.47 20.09 8 20.09C7.53 20.09 7.16 19.71 7.16 19.26V17.82C5.5 17.45 4.26 15.95 4.26 14.18C4.26 12.11 5.93 10.44 8 10.44C10.07 10.44 11.74 12.11 11.74 14.18C11.74 15.95 10.5 17.44 8.84 17.82ZM16.83 19.26C16.83 19.71 16.45 20.09 15.99 20.09C15.53 20.09 15.15 19.71 15.15 19.26V14.9C15.15 14.45 15.53 14.07 15.99 14.07C16.45 14.07 16.83 14.45 16.83 14.9V19.26ZM15.99 13.56C13.93 13.56 12.25 11.89 12.25 9.82C12.25 8.05 13.49 6.57 15.15 6.19V4.75C15.15 4.29 15.53 3.91 15.99 3.91C16.45 3.91 16.83 4.29 16.83 4.75V6.19C18.5 6.57 19.73 8.05 19.73 9.82C19.73 11.89 18.05 13.56 15.99 13.56ZM15.99 7.76C14.85 7.76 13.93 8.69 13.93 9.82C13.93 10.95 14.85 11.89 15.99 11.89C17.13 11.89 18.06 10.96 18.06 9.82C18.06 8.68 17.12 7.76 15.99 7.76ZM8 12.11C6.86 12.11 5.93 13.04 5.93 14.18C5.93 15.32 6.86 16.24 8 16.24C9.14 16.24 10.06 15.32 10.06 14.18C10.06 13.04 9.15 12.11 8 12.11ZM8 12.11C6.86 12.11 5.93 13.04 5.93 14.18C5.93 15.32 6.86 16.24 8 16.24C9.14 16.24 10.06 15.32 10.06 14.18C10.06 13.04 9.15 12.11 8 12.11ZM15.99 7.76C14.85 7.76 13.93 8.69 13.93 9.82C13.93 10.95 14.85 11.89 15.99 11.89C17.13 11.89 18.06 10.96 18.06 9.82C18.06 8.68 17.12 7.76 15.99 7.76ZM15.99 7.76C14.85 7.76 13.93 8.69 13.93 9.82C13.93 10.95 14.85 11.89 15.99 11.89C17.13 11.89 18.06 10.96 18.06 9.82C18.06 8.68 17.12 7.76 15.99 7.76ZM8 12.11C6.86 12.11 5.93 13.04 5.93 14.18C5.93 15.32 6.86 16.24 8 16.24C9.14 16.24 10.06 15.32 10.06 14.18C10.06 13.04 9.15 12.11 8 12.11ZM8 12.11C6.86 12.11 5.93 13.04 5.93 14.18C5.93 15.32 6.86 16.24 8 16.24C9.14 16.24 10.06 15.32 10.06 14.18C10.06 13.04 9.15 12.11 8 12.11ZM8 12.11C6.86 12.11 5.93 13.04 5.93 14.18C5.93 15.32 6.86 16.24 8 16.24C9.14 16.24 10.06 15.32 10.06 14.18C10.06 13.04 9.15 12.11 8 12.11Z" fill="white"/>
</svg>
