<svg width="24" height="24" viewBox="0 0 24 24" fill="none" xmlns="http://www.w3.org/2000/svg">
<path d="M15.3488 24H8.65116C2.58977 24 0 21.4102 0 15.3488V8.65116C0 2.58977 2.58977 0 8.65116 0H15.3488C21.4102 0 24 2.58977 24 8.65116V15.3488C24 21.4102 21.4102 24 15.3488 24ZM8.65116 1.67442C3.50512 1.67442 1.67442 3.50512 1.67442 8.65116V15.3488C1.67442 20.4949 3.50512 22.3256 8.65116 22.3256H15.3488C20.4949 22.3256 22.3256 20.4949 22.3256 15.3488V8.65116C22.3256 3.50512 20.4949 1.67442 15.3488 1.67442H8.65116Z" fill="white"/>
<path d="M15.9964 20.0933C15.5387 20.0933 15.1592 19.7138 15.1592 19.2561V14.9026C15.1592 14.445 15.5387 14.0654 15.9964 14.0654C16.4541 14.0654 16.8336 14.445 16.8336 14.9026V19.2561C16.8336 19.7138 16.4541 20.0933 15.9964 20.0933Z" fill="white"/>
<path d="M15.9964 7.7579C15.5387 7.7579 15.1592 7.37837 15.1592 6.92069V4.74395C15.1592 4.28627 15.5387 3.90674 15.9964 3.90674C16.4541 3.90674 16.8336 4.28627 16.8336 4.74395V6.92069C16.8336 7.37837 16.4541 7.7579 15.9964 7.7579Z" fill="white"/>
<path d="M15.9969 13.5631C13.9317 13.5631 12.2573 11.8886 12.2573 9.82352C12.2573 7.7584 13.9317 6.08398 15.9969 6.08398C18.062 6.08398 19.7364 7.7584 19.7364 9.82352C19.7364 11.8886 18.0508 13.5631 15.9969 13.5631ZM15.9969 7.7584C14.8583 7.7584 13.9317 8.68492 13.9317 9.82352C13.9317 10.9621 14.8583 11.8886 15.9969 11.8886C17.1355 11.8886 18.062 10.9621 18.062 9.82352C18.062 8.68492 17.1243 7.7584 15.9969 7.7584Z" fill="white"/>
<path d="M8.00371 20.0929C7.54604 20.0929 7.1665 19.7133 7.1665 19.2557V17.0789C7.1665 16.6212 7.54604 16.2417 8.00371 16.2417C8.46139 16.2417 8.84092 16.6212 8.84092 17.0789V19.2557C8.84092 19.7133 8.47255 20.0929 8.00371 20.0929Z" fill="white"/>
<path d="M8.00371 9.93464C7.54604 9.93464 7.1665 9.55511 7.1665 9.09743V4.74395C7.1665 4.28627 7.54604 3.90674 8.00371 3.90674C8.46139 3.90674 8.84092 4.28627 8.84092 4.74395V9.09743C8.84092 9.55511 8.47255 9.93464 8.00371 9.93464Z" fill="white"/>
<path d="M8.00418 17.9166C5.93907 17.9166 4.26465 16.2422 4.26465 14.177C4.26465 12.1119 5.93907 10.4375 8.00418 10.4375C10.0693 10.4375 11.7437 12.1119 11.7437 14.177C11.7437 16.2422 10.0693 17.9166 8.00418 17.9166ZM8.00418 12.1119C6.86558 12.1119 5.93907 13.0384 5.93907 14.177C5.93907 15.3156 6.86558 16.2422 8.00418 16.2422C9.14279 16.2422 10.0693 15.3156 10.0693 14.177C10.0693 13.0384 9.15395 12.1119 8.00418 12.1119Z" fill="white"/>
</svg>
