<svg width="72" height="70" viewBox="0 0 72 70" fill="none" xmlns="http://www.w3.org/2000/svg">
<path d="M38.2442 46.549V49.3154C38.2442 49.7623 38.0681 50.1905 37.7551 50.5064C37.4419 50.8225 37.0173 51 36.5746 51C36.1318 51 35.7072 50.8225 35.3942 50.5064C35.081 50.1905 34.9054 49.7623 34.9054 49.3154V46.4733C33.8003 46.2895 32.7433 45.8829 31.7973 45.2781C30.8513 44.6733 30.0355 43.8827 29.3986 42.953C29.1432 42.6714 29.0011 42.3035 29 41.9217C28.9998 41.704 29.0433 41.4885 29.128 41.2881C29.2128 41.0879 29.3371 40.9068 29.4932 40.7564C29.6493 40.6061 29.8339 40.4889 30.0361 40.4127C30.2383 40.3362 30.4537 40.3023 30.6694 40.3126C30.8834 40.3113 31.0949 40.3581 31.2887 40.4494C31.4828 40.5407 31.6542 40.6742 31.7908 40.8407C32.5876 41.8913 33.6695 42.686 34.9054 43.1288V36.742C31.5914 35.4092 29.9219 33.4727 29.9219 30.9328C29.9718 29.5732 30.5013 28.2762 31.415 27.2756C32.3287 26.2751 33.5666 25.6371 34.9054 25.4762V22.6846C34.9054 22.2378 35.081 21.8089 35.3942 21.493C35.7072 21.177 36.1318 21 36.5746 21C37.0173 21 37.4419 21.177 37.7551 21.493C38.0681 21.8089 38.2442 22.2378 38.2442 22.6846V25.451C39.1754 25.5959 40.0679 25.9284 40.8685 26.4297C41.669 26.9309 42.3615 27.5903 42.9037 28.3678C43.1234 28.6588 43.2532 29.0084 43.2772 29.3735C43.2839 29.589 43.2478 29.804 43.1705 30.0052C43.0933 30.2064 42.9769 30.3894 42.8282 30.5443C42.6794 30.699 42.5013 30.8224 42.3047 30.9064C42.1078 30.9904 41.8963 31.0337 41.6825 31.0334C41.4597 31.0307 41.24 30.9799 41.0381 30.8843C40.8361 30.789 40.6567 30.6512 40.5117 30.4805C39.9174 29.7313 39.1343 29.1575 38.2442 28.8203V34.4783L38.8671 34.73C42.0316 35.9622 44 37.7725 44 40.6644C43.9571 42.1984 43.339 43.6591 42.2708 44.7513C41.2026 45.8434 39.7634 46.4859 38.2442 46.549ZM34.9054 33.0203V28.9462C34.5032 29.0934 34.1569 29.3644 33.9154 29.721C33.6742 30.0773 33.5499 30.5013 33.5599 30.9328C33.5803 31.3603 33.7163 31.774 33.9538 32.1288C34.191 32.4836 34.5202 32.7658 34.9054 32.9448V33.0203ZM40.3871 40.7398C40.3871 39.5077 39.5399 38.7784 38.2442 38.2252V43.2545C38.8559 43.1678 39.4138 42.8547 39.8097 42.3759C40.2057 41.8974 40.4115 41.2873 40.3871 40.6644V40.7398Z" fill="url(#paint0_linear_68_744)"/>
<path fill-rule="evenodd" clip-rule="evenodd" d="M4.65913 8.76655C7.6421 5.78358 11.6878 4.10742 15.9066 4.10742H37.9414C39.3285 4.10742 40.453 5.2319 40.453 6.61899C40.453 8.00608 39.3285 9.13056 37.9414 9.13056H15.9066C13.0203 9.13056 10.2522 10.2773 8.21102 12.3184C6.16989 14.3596 5.02314 17.1277 5.02314 20.014V53.5017C5.02314 56.388 6.16989 59.1561 8.21102 61.1972C10.2522 63.2382 13.0203 64.3852 15.9066 64.3852H56.0917C58.978 64.3852 61.7464 63.2382 63.7875 61.1972C65.8286 59.1561 66.9752 56.388 66.9752 53.5017V33.1744C66.9752 31.7874 68.0997 30.6629 69.4868 30.6629C70.8738 30.6629 71.9983 31.7874 71.9983 33.1744V53.5017C71.9983 57.7205 70.3226 61.7661 67.3395 64.7492C64.3565 67.7319 60.3105 69.4083 56.0917 69.4083H15.9066C11.6878 69.4083 7.6421 67.7319 4.65913 64.7492C1.67615 61.7661 0 57.7205 0 53.5017V20.014C0 15.7952 1.67615 11.7495 4.65913 8.76655Z" fill="white"/>
<path fill-rule="evenodd" clip-rule="evenodd" d="M71.2623 1.32692C72.2432 2.30777 72.2432 3.898 71.2623 4.87882L52.3083 23.8328C51.3275 24.8136 49.7372 24.8136 48.7563 23.8328C47.7754 22.852 47.7754 21.2617 48.7563 20.2809L67.7103 1.32692C68.6911 0.346104 70.2815 0.346104 71.2623 1.32692Z" fill="white"/>
<path fill-rule="evenodd" clip-rule="evenodd" d="M51.8405 3.10288C51.8405 1.71579 52.9651 0.591309 54.3521 0.591309H69.4885C70.8756 0.591309 72.0001 1.71579 72.0001 3.10288V18.2728C72.0001 19.6599 70.8756 20.7843 69.4885 20.7843C68.1011 20.7843 66.9769 19.6599 66.9769 18.2728V5.61445H54.3521C52.9651 5.61445 51.8405 4.49 51.8405 3.10288Z" fill="white"/>
<defs>
<linearGradient id="paint0_linear_68_744" x1="39.8259" y1="22.3" x2="27.0568" y2="25.4791" gradientUnits="userSpaceOnUse">
<stop stop-color="#FF2957"/>
<stop offset="1" stop-color="#FF7357"/>
</linearGradient>
</defs>
</svg>
