<svg width="72" height="70" viewBox="0 0 72 70" fill="none" xmlns="http://www.w3.org/2000/svg">
<path d="M38.2442 46.549V49.3154C38.2442 49.7623 38.0681 50.1905 37.7551 50.5064C37.4419 50.8225 37.0173 51 36.5746 51C36.1318 51 35.7072 50.8225 35.3942 50.5064C35.081 50.1905 34.9054 49.7623 34.9054 49.3154V46.4733C33.8003 46.2895 32.7433 45.8829 31.7973 45.2781C30.8513 44.6733 30.0355 43.8827 29.3986 42.953C29.1432 42.6714 29.0011 42.3035 29 41.9217C28.9998 41.704 29.0433 41.4885 29.128 41.2881C29.2128 41.0879 29.3371 40.9068 29.4932 40.7564C29.6493 40.6061 29.8339 40.4889 30.0361 40.4127C30.2383 40.3362 30.4537 40.3023 30.6694 40.3126C30.8834 40.3113 31.0949 40.3581 31.2887 40.4494C31.4828 40.5407 31.6542 40.6742 31.7908 40.8407C32.5876 41.8913 33.6695 42.686 34.9054 43.1288V36.742C31.5914 35.4092 29.9219 33.4727 29.9219 30.9328C29.9718 29.5732 30.5013 28.2762 31.415 27.2756C32.3287 26.2751 33.5666 25.6371 34.9054 25.4762V22.6846C34.9054 22.2378 35.081 21.8089 35.3942 21.493C35.7072 21.177 36.1318 21 36.5746 21C37.0173 21 37.4419 21.177 37.7551 21.493C38.0681 21.8089 38.2442 22.2378 38.2442 22.6846V25.451C39.1754 25.5959 40.0679 25.9284 40.8685 26.4297C41.669 26.9309 42.3615 27.5903 42.9037 28.3678C43.1234 28.6588 43.2532 29.0084 43.2772 29.3735C43.2839 29.589 43.2478 29.804 43.1705 30.0052C43.0933 30.2064 42.9769 30.3894 42.8282 30.5443C42.6794 30.699 42.5013 30.8224 42.3047 30.9064C42.1078 30.9904 41.8963 31.0337 41.6825 31.0334C41.4597 31.0307 41.24 30.9799 41.0381 30.8843C40.8361 30.789 40.6567 30.6512 40.5117 30.4805C39.9174 29.7313 39.1343 29.1575 38.2442 28.8203V34.4783L38.8671 34.73C42.0316 35.9622 44 37.7725 44 40.6644C43.9571 42.1984 43.339 43.6591 42.2708 44.7513C41.2026 45.8434 39.7634 46.4859 38.2442 46.549ZM34.9054 33.0203V28.9462C34.5032 29.0934 34.1569 29.3644 33.9154 29.721C33.6742 30.0773 33.5499 30.5013 33.5599 30.9328C33.5803 31.3603 33.7163 31.774 33.9538 32.1288C34.191 32.4836 34.5202 32.7658 34.9054 32.9448V33.0203ZM40.3871 40.7398C40.3871 39.5077 39.5399 38.7784 38.2442 38.2252V43.2545C38.8559 43.1678 39.4138 42.8547 39.8097 42.3759C40.2057 41.8974 40.4115 41.2873 40.3871 40.6644V40.7398Z" fill="url(#paint0_linear_68_730)"/>
<path fill-rule="evenodd" clip-rule="evenodd" d="M4.65924 8.76617C7.64228 5.78313 11.688 4.10693 15.907 4.10693H37.9423C39.3294 4.10693 40.454 5.23144 40.454 6.61856C40.454 8.00568 39.3294 9.13019 37.9423 9.13019H15.907C13.0206 9.13019 10.2524 10.277 8.21122 12.3181C6.17003 14.3593 5.02326 17.1275 5.02326 20.0139V53.5024C5.02326 56.3887 6.17003 59.1569 8.21122 61.198C10.2524 63.2391 13.0206 64.3861 15.907 64.3861H56.093C58.9794 64.3861 61.7479 63.2391 63.789 61.198C65.8301 59.1569 66.9767 56.3887 66.9767 53.5024V33.1746C66.9767 31.7875 68.1013 30.663 69.4884 30.663C70.8755 30.663 72 31.7875 72 33.1746V53.5024C72 57.7212 70.3242 61.767 67.3411 64.7501C64.358 67.7329 60.3119 69.4094 56.093 69.4094H15.907C11.688 69.4094 7.64228 67.7329 4.65924 64.7501C1.67619 61.767 0 57.7212 0 53.5024V20.0139C0 15.795 1.67619 11.7492 4.65924 8.76617Z" fill="white"/>
<path fill-rule="evenodd" clip-rule="evenodd" d="M71.2639 1.32596C72.2448 2.30684 72.2448 3.8971 71.2639 4.87794L52.3095 23.8324C51.3286 24.8132 49.7383 24.8132 48.7574 23.8324C47.7765 22.8515 47.7765 21.2612 48.7574 20.2804L67.7118 1.32596C68.6927 0.345122 70.283 0.345122 71.2639 1.32596Z" fill="white"/>
<path fill-rule="evenodd" clip-rule="evenodd" d="M50.5333 4.37402C51.9207 4.37402 53.0449 5.49853 53.0449 6.88565V19.5443H65.7035C67.091 19.5443 68.2152 20.6688 68.2152 22.0559C68.2152 23.443 67.091 24.5675 65.7035 24.5675H50.5333C49.1462 24.5675 48.0217 23.443 48.0217 22.0559V6.88565C48.0217 5.49853 49.1462 4.37402 50.5333 4.37402Z" fill="white"/>
<defs>
<linearGradient id="paint0_linear_68_730" x1="39.8259" y1="22.3" x2="27.0568" y2="25.4791" gradientUnits="userSpaceOnUse">
<stop stop-color="#FF2957"/>
<stop offset="1" stop-color="#FF7357"/>
</linearGradient>
</defs>
</svg>
