<svg width="72" height="72" viewBox="0 0 72 72" fill="none" xmlns="http://www.w3.org/2000/svg">
<path fill-rule="evenodd" clip-rule="evenodd" d="M36 5.02326C18.892 5.02326 5.02326 18.892 5.02326 35.9999C5.02326 53.1081 18.892 66.9767 36 66.9767C53.1079 66.9767 66.9767 53.1081 66.9767 35.9999C66.9767 18.892 53.1079 5.02326 36 5.02326ZM0 35.9999C0 16.1178 16.1178 0 36 0C55.8824 0 72 16.1178 72 35.9999C72 55.8823 55.8824 71.9999 36 71.9999C16.1178 71.9999 0 55.8823 0 35.9999Z" fill="white"/>
<path d="M36.2261 35.4618C36.1836 35.4618 36.1553 35.4618 36.1128 35.4618C36.0419 35.4477 35.9428 35.4477 35.8578 35.4618C31.7494 35.3343 28.6469 32.1043 28.6469 28.1235C28.6469 24.0718 31.9478 20.771 35.9994 20.771C40.0511 20.771 43.3519 24.0718 43.3519 28.1235C43.3378 32.1043 40.2211 35.3343 36.2686 35.4618C36.2544 35.4618 36.2403 35.4618 36.2261 35.4618ZM35.9994 22.896C33.1236 22.896 30.7719 25.2477 30.7719 28.1235C30.7719 30.9568 32.9819 33.2377 35.8011 33.3368C35.8719 33.3227 36.0703 33.3227 36.2544 33.3368C39.0311 33.2093 41.2128 30.9285 41.2269 28.1235C41.2269 25.2477 38.8753 22.896 35.9994 22.896Z" fill="url(#paint0_linear_68_758)"/>
<path d="M36.2403 50.9457C33.4636 50.9457 30.6728 50.2373 28.5619 48.8207C26.5928 47.5173 25.5161 45.7323 25.5161 43.7915C25.5161 41.8507 26.5928 40.0515 28.5619 38.734C32.8119 35.9148 39.6969 35.9148 43.9186 38.734C45.8736 40.0373 46.9644 41.8223 46.9644 43.7632C46.9644 45.704 45.8878 47.5032 43.9186 48.8207C41.7936 50.2373 39.0169 50.9457 36.2403 50.9457ZM29.7378 40.519C28.3778 41.4257 27.6411 42.5873 27.6411 43.8057C27.6411 45.0098 28.3919 46.1715 29.7378 47.064C33.2653 49.4298 39.2153 49.4298 42.7428 47.064C44.1028 46.1573 44.8394 44.9957 44.8394 43.7773C44.8394 42.5732 44.0886 41.4115 42.7428 40.519C39.2153 38.1673 33.2653 38.1673 29.7378 40.519Z" fill="url(#paint1_linear_68_758)"/>
<defs>
<linearGradient id="paint0_linear_68_758" x1="39.2599" y1="21.4076" x2="28.6113" y2="26.715" gradientUnits="userSpaceOnUse">
<stop stop-color="#FF2957"/>
<stop offset="1" stop-color="#FF7357"/>
</linearGradient>
<linearGradient id="paint1_linear_68_758" x1="40.9959" y1="37.2404" x2="28.5324" y2="46.5318" gradientUnits="userSpaceOnUse">
<stop stop-color="#FF2957"/>
<stop offset="1" stop-color="#FF7357"/>
</linearGradient>
</defs>
</svg>
