<svg width="24" height="22" viewBox="0 0 24 22" fill="none" xmlns="http://www.w3.org/2000/svg">
<g clip-path="url(#clip0_68_4864)">
<path fill-rule="evenodd" clip-rule="evenodd" d="M18.7 0.115234H5.3C2.37 0.115234 0 2.48523 0 5.41523V6.86523H3.43C4.54 6.86523 5.61 7.30523 6.39 8.09523C7.18 8.87523 7.62 9.94523 7.62 11.0552C7.62 12.1652 7.18 13.2252 6.39 14.0152C5.61 14.7952 4.54 15.2352 3.43 15.2352H0V16.5752C0 19.5052 2.37 21.8852 5.3 21.8852H18.7C21.62 21.8852 24 19.5052 24 16.5752V5.41523C24 2.48523 21.62 0.115234 18.7 0.115234ZM5.21 9.27523C4.74 8.80523 4.1 8.54523 3.43 8.54523H0V13.5652H3.43C4.1 13.5652 4.74 13.3052 5.21 12.8252C5.68 12.3552 5.94 11.7152 5.94 11.0552C5.94 10.3952 5.68 9.74523 5.21 9.27523Z" fill="white"/>
</g>
<defs>
<clipPath id="clip0_68_4864">
<rect width="24" height="21.77" fill="white" transform="translate(0 0.115234)"/>
</clipPath>
</defs>
</svg>
