<svg width="24" height="22" viewBox="0 0 24 22" fill="none" xmlns="http://www.w3.org/2000/svg">
<path fill-rule="evenodd" clip-rule="evenodd" d="M5.30233 1.79063C3.29868 1.79063 1.67442 3.4149 1.67442 5.41854V16.5813C1.67442 18.5849 3.29868 20.2092 5.30233 20.2092H18.6977C20.7013 20.2092 22.3256 18.5849 22.3256 16.5813V5.41854C22.3256 3.4149 20.7013 1.79063 18.6977 1.79063H5.30233ZM0 5.41854C0 2.49015 2.37394 0.116211 5.30233 0.116211H18.6977C21.6261 0.116211 24 2.49015 24 5.41854V16.5813C24 19.5098 21.6261 21.8836 18.6977 21.8836H5.30233C2.37394 21.8836 0 19.5098 0 16.5813V5.41854Z" fill="white"/>
<path fill-rule="evenodd" clip-rule="evenodd" d="M0 7.70684C0 7.24446 0.374835 6.86963 0.837209 6.86963H4.59914C5.70934 6.86963 6.77403 7.31064 7.55906 8.09567C8.34408 8.88064 8.78518 9.94546 8.78518 11.0557C8.78518 12.166 8.34408 13.2307 7.55906 14.0156C6.77403 14.8007 5.70934 15.2418 4.59914 15.2418H0.837209C0.374835 15.2418 0 14.8669 0 14.4045C0 13.9422 0.374835 13.5673 0.837209 13.5673H4.59914C5.26525 13.5673 5.90406 13.3027 6.37507 12.8317C6.84612 12.3606 7.11076 11.7218 7.11076 11.0557C7.11076 10.3896 6.84612 9.75067 6.37507 9.27971C5.90406 8.80864 5.26525 8.54408 4.59914 8.54408H0.837209C0.374835 8.54408 0 8.16923 0 7.70684Z" fill="white"/>
</svg>
